# xmcd
#
# Track frame offsets: 
#        150
#        18308
#        28115
#        40232
#        57578
#        70289
#        86732
#        104127
#        116076
#        132499
#        144070
#        155214
#        170775
#
# Disc length: 2447 seconds
#
# Revision: 17
# Processed by: cddbd v1.5.2PL0 Copyright (c) Steve Scherf et al.
# Submitted via: ExactAudioCopy v0.95a5
#
DISCID=c4098d0d
DTITLE=Lisa Ekdahl - Bortom Det Bla
DYEAR=1997
DGENRE=Blues
TTITLE0=Bortom Det Bla
TTITLE1=Ga Dit Ifall du Minns
TTITLE2=Tva Lyckliga Darar 
TTITLE3=Jag Behover Inget Mer
TTITLE4=VI Tillhor Varann 
TTITLE5=Sakta, Sakta
TTITLE6=Jag vill bara vara
TTITLE7=Du Var Inte Dar For Mig
TTITLE8=Hyenora Skrattade, Gamarna Log
TTITLE9=Genom Dig Ser Jag Ljuset 
TTITLE10=Cirklar
TTITLE11=Vill Ha Dig Kvar 
TTITLE12=Tank Inte Mera 
EXTD=YEAR: 1997 ID3G:   0
EXTT0=
EXTT1=
EXTT2=
EXTT3=
EXTT4=
EXTT5=
EXTT6=
EXTT7=
EXTT8=
EXTT9=
EXTT10=
EXTT11=
EXTT12=
PLAYORDER=
